<svg xmlns="http://www.w3.org/2000/svg" version="1.1" xmlnsxlink="http://www.w3.org/1999/xlink" xmlnssvgjs="http://svgjs.dev/svgjs" width="1000" height="750" viewBox="0 0 1000 750"><rect width="1000" height="750" fill="#ffffff"></rect><g transform="matrix(0.834,0,0,0.834,82.49454545454546,197.8010956966183)"><svg viewBox="0 0 396 169" data-background-color="#ffffff" preserveAspectRatio="xMidYMid meet" height="426" width="1000" xmlns="http://www.w3.org/2000/svg" xmlnsxlink="http://www.w3.org/1999/xlink"><g id="tight-bounds" transform="matrix(1,0,0,1,0.2400000000000091,-0.21076989880910446)"><svg viewBox="0 0 395.52 169.4215397976182" height="169.4215397976182" width="395.52"><g><svg viewBox="0 0 469.2409247074829 200.99999999999997" height="169.4215397976182" width="395.52"><g><rect width="8.281931510204082" height="200.99999999999997" x="181.18330612244895" y="0" fill="#000000" opacity="1" stroke-width="0" stroke="transparent" fill-opacity="1" class="rect-r$-0" data-fill-palette-color="primary" rx="1%" id="r$-0" data-palette-color="#000000"></rect></g><g transform="matrix(1,0,0,1,211.14568661224487,0.4999999999999858)"><svg viewBox="0 0 258.0952380952381 200" height="200" width="258.0952380952381"><g id="textblocktransform"><svg viewBox="0 0 258.0952380952381 200" height="200" width="258.0952380952381" id="textblock"><g><svg viewBox="0 0 258.0952380952381 200" height="200" width="258.0952380952381"><g transform="matrix(1,0,0,1,0,0)"><svg width="258.0952380952381" viewBox="2.7 -32.75 94.85 70" height="200" data-palette-color="#000000"><svg></svg><svg></svg><g class="wordmark-text-0" data-fill-palette-color="primary" id="text-0"><path d="M5.45 0h-2.75v-32.75h2.75v15.2h14.1v-15.2h2.75v32.75h-2.75v-15h-14.1zM46.3 0h-17.2v-32.75h17.05v2.45h-14.3v12.4h12.95v2.45h-12.95v13h14.45zM53.75 0h-2.9l9.4-32.75h4.8l9.05 32.75h-2.95l-2.05-7.55h-13.25zM56.55-10.05h11.9l-5.4-20.2h-0.85zM85.8-12v0h-4.6v12h-2.75v-32.75h7.35c4 0 6.957 0.757 8.87 2.27 1.92 1.52 2.88 4.147 2.88 7.88 0 3.733-0.967 6.433-2.9 8.1-1.933 1.667-4.883 2.5-8.85 2.5zM85.8-30.25v0h-4.6v15.75h4.6c3.067 0 5.31-0.617 6.73-1.85 1.413-1.233 2.12-3.3 2.12-6.2 0-2.9-0.7-4.91-2.1-6.03-1.4-1.113-3.65-1.67-6.75-1.67z" fill="#000000" fill-rule="nonzero" stroke="none" stroke-width="1" stroke-linecap="butt" stroke-linejoin="miter" stroke-miterlimit="10" stroke-dasharray="" stroke-dashoffset="0" font-family="none" font-weight="none" font-size="none" text-anchor="none" style="mix-blend-mode: normal" data-fill-palette-color="primary" opacity="1"></path><path transform="translate(0,36.75)" d="M11.33-15.73c-2.987-0.713-5.17-1.763-6.55-3.15-1.387-1.38-2.08-3.387-2.08-6.02 0-2.633 0.91-4.683 2.73-6.15 1.813-1.467 4.153-2.2 7.02-2.2 2.867 0 5.783 0.517 8.75 1.55v0l-0.7 2.55c-2.767-1-5.307-1.5-7.62-1.5-2.32 0-4.097 0.49-5.33 1.47-1.233 0.987-1.85 2.413-1.85 4.28 0 1.867 0.5 3.283 1.5 4.25 1 0.967 2.993 1.84 5.98 2.62 2.98 0.787 5.137 1.82 6.47 3.1 1.333 1.287 2 3.357 2 6.21 0 2.847-0.957 5.093-2.87 6.74-1.92 1.653-4.397 2.48-7.43 2.48v0c-2.267 0-5.133-0.483-8.6-1.45v0l0.65-2.55c3.4 0.933 6.133 1.4 8.2 1.4 2.067 0 3.767-0.577 5.1-1.73 1.333-1.147 2-2.753 2-4.82 0-2.067-0.483-3.583-1.45-4.55-0.967-0.967-2.94-1.81-5.92-2.53zM30.45 0h-2.75v-32.75h2.75v15.2h14.1v-15.2h2.75v32.75h-2.75v-15h-14.1zM52-16.7v0c0-2.6 0.167-4.85 0.5-6.75v0c0.333-1.9 0.867-3.617 1.6-5.15v0c1.5-3.1 4.3-4.65 8.4-4.65v0c4.667 0.033 7.733 2.217 9.2 6.55v0c0.867 2.5 1.3 5.44 1.3 8.82 0 3.387-0.167 6.08-0.5 8.08-0.333 2-0.867 3.8-1.6 5.4v0c-1.533 3.267-4.333 4.9-8.4 4.9v0c-4 0-6.783-1.633-8.35-4.9v0c-1.433-2.967-2.15-7.067-2.15-12.3zM70.05-16.3v0c0-1.8-0.043-3.25-0.13-4.35-0.08-1.1-0.27-2.317-0.57-3.65-0.3-1.333-0.707-2.433-1.22-3.3-0.52-0.867-1.257-1.593-2.21-2.18-0.947-0.58-2.087-0.87-3.42-0.87-1.333 0-2.473 0.29-3.42 0.87-0.953 0.587-1.687 1.313-2.2 2.18-0.52 0.867-0.93 1.967-1.23 3.3v0c-0.467 2.067-0.7 4.357-0.7 6.87 0 2.52 0.093 4.553 0.28 6.1 0.18 1.553 0.52 3.08 1.02 4.58v0c1.033 3.1 3.117 4.65 6.25 4.65v0c3.2 0 5.3-1.567 6.3-4.7v0c0.867-2.667 1.283-5.833 1.25-9.5zM85.8-12v0h-4.6v12h-2.75v-32.75h7.35c4 0 6.957 0.757 8.87 2.27 1.92 1.52 2.88 4.147 2.88 7.88 0 3.733-0.967 6.433-2.9 8.1-1.933 1.667-4.883 2.5-8.85 2.5zM85.8-30.25v0h-4.6v15.75h4.6c3.067 0 5.31-0.617 6.73-1.85 1.413-1.233 2.12-3.3 2.12-6.2 0-2.9-0.7-4.91-2.1-6.03-1.4-1.113-3.65-1.67-6.75-1.67z" fill="#000000" fill-rule="nonzero" stroke="none" stroke-width="1" stroke-linecap="butt" stroke-linejoin="miter" stroke-miterlimit="10" stroke-dasharray="" stroke-dashoffset="0" font-family="none" font-weight="none" font-size="none" text-anchor="none" style="mix-blend-mode: normal" data-fill-palette-color="primary" opacity="1"></path></g></svg></g></svg></g></svg></g></svg></g><g transform="matrix(1,0,0,1,0,19.85248796147671)"><svg viewBox="0 0 159.50285714285712 161.29502407704655" height="161.29502407704655" width="159.50285714285712"><g><svg xmlns="http://www.w3.org/2000/svg" xmlnsxlink="http://www.w3.org/1999/xlink" version="1.1" x="0" y="0" viewBox="5.5 5 89 90" enable-background="new 0 0 100 100" xmlspace="preserve" height="161.29502407704655" width="159.50285714285712" class="icon-icon-0" data-fill-palette-color="accent" id="icon-0"><path d="M92.46 29.21c1.28-1.74 2.04-3.88 2.04-6.2 0-0.13-0.01-0.27-0.04-0.4l-0.01-0.04-1.99-9.96C92.27 11.67 91.45 11 90.5 11h-80c-0.88 0-1.66 0.58-1.92 1.43l-2.99 9.98-0.01 0.02C5.52 22.62 5.5 22.81 5.5 23c0 2.86 1.15 5.45 3 7.34v57.08c0 1.1 0.9 2 2 2s2-0.9 2-2V32.9c1.09 0.39 2.27 0.6 3.5 0.6 3.5 0 6.6-1.72 8.5-4.35 1.9 2.63 5 4.35 8.5 4.35s6.6-1.72 8.5-4.35c1.9 2.63 5 4.35 8.5 4.35s6.6-1.72 8.5-4.35c1.9 2.63 5 4.35 8.5 4.35s6.6-1.72 8.5-4.35c1.9 2.63 5 4.35 8.5 4.35 1.61 0 3.14-0.36 4.5-1.02v54.94c0 1.1 0.9 2 2 2s2-0.9 2-2v-57.8c0-0.14-0.01-0.27-0.04-0.4C92.46 29.21 92.46 29.21 92.46 29.21zM84 29.5c-3.58 0-6.5-2.92-6.5-6.5 0-1.1-0.9-2-2-2s-2 0.9-2 2c0 3.58-2.92 6.5-6.5 6.5s-6.5-2.92-6.5-6.5c0-1.1-0.9-2-2-2s-2 0.9-2 2c0 3.58-2.92 6.5-6.5 6.5s-6.5-2.92-6.5-6.5c0-1.1-0.9-2-2-2s-2 0.9-2 2c0 3.58-2.92 6.5-6.5 6.5s-6.5-2.92-6.5-6.5c0-1.1-0.9-2-2-2s-2 0.9-2 2c0 3.58-2.92 6.5-6.5 6.5-3.49 0-6.36-2.78-6.49-6.24L11.99 15h76.87l1.63 8.16C90.41 26.67 87.53 29.5 84 29.5zM92.5 25.5M75.5 25.5M92.5 25.5M7.5 25.5M88.5 9h-76c-1.104 0-2-0.896-2-2s0.896-2 2-2h76c1.104 0 2 0.896 2 2S89.604 9 88.5 9zM92.5 95h-85c-1.104 0-2-0.896-2-2s0.896-2 2-2h85c1.104 0 2 0.896 2 2S93.604 95 92.5 95zM38.5 87.208h-20c-1.104 0-2-0.896-2-2v-42c0-1.104 0.896-2 2-2h20c1.104 0 2 0.896 2 2v42C40.5 86.312 39.604 87.208 38.5 87.208zM20.5 83.208h16v-38h-16V83.208zM82.5 87.208h-36c-1.104 0-2-0.896-2-2v-42c0-1.104 0.896-2 2-2h36c1.104 0 2 0.896 2 2v42C84.5 86.312 83.604 87.208 82.5 87.208zM48.5 83.208h32v-38h-32V83.208zM33.75 66.208c0 1.105-0.895 2-2 2-1.105 0-2-0.895-2-2s0.895-2 2-2C32.855 64.208 33.75 65.104 33.75 66.208zM58.539 68.669c-0.512 0-1.023-0.195-1.414-0.586-0.781-0.781-0.781-2.048 0-2.828l4.922-4.921c0.781-0.781 2.047-0.781 2.828 0s0.781 2.048 0 2.828l-4.922 4.921C59.562 68.474 59.051 68.669 58.539 68.669zM65.539 68.669c-0.512 0-1.023-0.195-1.414-0.586-0.781-0.781-0.781-2.048 0-2.828l4.922-4.921c0.781-0.781 2.047-0.781 2.828 0s0.781 2.048 0 2.828l-4.922 4.921C66.562 68.474 66.051 68.669 65.539 68.669z" fill="#111111" data-fill-palette-color="accent"></path></svg></g></svg></g></svg></g><defs></defs></svg><rect width="395.52" height="169.4215397976182" fill="none" stroke="none" visibility="hidden"></rect></g></svg></g></svg>